<?xml version="1.0" standalone="no"?><!DOCTYPE svg PUBLIC "-//W3C//DTD SVG 1.1//EN" "http://www.w3.org/Graphics/SVG/1.1/DTD/svg11.dtd"><svg t="1720182643826" class="icon" viewBox="0 0 1024 1024" version="1.1" xmlns="http://www.w3.org/2000/svg" p-id="10073" xmlns:xlink="http://www.w3.org/1999/xlink" width="200" height="200"><path d="M215.369981 519.058418V731.428571a55.408582 55.408582 0 0 1-110.817163 0V519.058418a55.408582 55.408582 0 0 1 110.817163 0zM919.447182 519.058418V731.428571a55.408582 55.408582 0 1 1-110.817163 0V519.058418a55.408582 55.408582 0 0 1 110.817163 0z" fill="#06C7CA" p-id="10074"></path><path d="M400.035844 966.915044a44.115113 44.115113 0 0 1 44.115112-44.115113h87.700845a44.115113 44.115113 0 1 1 0 87.700844h-87.965535a44.115113 44.115113 0 0 1-43.850422-43.585731zM974.855764 574.467v101.55299a55.408582 55.408582 0 0 1-55.408582 55.408581V519.058418a55.408582 55.408582 0 0 1 55.408582 55.408582zM104.552818 519.058418V731.428571a55.408582 55.408582 0 0 1-55.408582-55.408581V574.467a55.408582 55.408582 0 0 1 55.408582-55.408582zM869.773565 254.279511l-36.439083 8.205411-36.968464 8.293641a313.834913 313.834913 0 0 0-572.878856 3.97036l-36.792004-8.205411-36.086163-8.117181a387.683612 387.683612 0 0 1 719.429261-4.14682z" fill="#C6CA76" p-id="10075"></path><path d="M512.352921 331.922109a187.136309 187.136309 0 1 1-186.695158 187.136309A187.136309 187.136309 0 0 1 512.352921 331.922109z m-70.584181 289.483371l185.283474-106.670343-185.283474-106.758573z" fill="#FF8875" p-id="10076"></path><path d="M104.552818 744.663105A68.731346 68.731346 0 0 1 35.909702 676.01999V574.467a68.731346 68.731346 0 0 1 68.643116-68.643116v26.469068A42.262278 42.262278 0 0 0 62.37877 574.467v101.55299a42.262278 42.262278 0 0 0 42.174048 42.174048zM919.447182 744.663105v-26.469067a42.262278 42.262278 0 0 0 42.174048-42.174048V574.467a42.262278 42.262278 0 0 0-42.174048-42.174048v-26.469068a68.731346 68.731346 0 0 1 68.643116 68.643116v101.55299a68.731346 68.731346 0 0 1-68.643116 68.643115zM874.979149 463.649836h-26.469068v-62.55523A335.892469 335.892469 0 0 0 821.158711 267.690505l24.351542-10.411167a362.185077 362.185077 0 0 1 29.468896 143.815268zM173.195933 463.649836h-26.469068v-62.55523a362.449767 362.449767 0 0 1 27.704291-139.580217l24.439773 10.146476a336.15716 336.15716 0 0 0-25.763226 129.521971z" fill="#18252F" p-id="10077"></path><path d="M159.961399 800.071687a68.643116 68.643116 0 0 1-68.643115-68.643116V519.058418a68.643116 68.643116 0 0 1 117.169739-48.526624 67.849044 67.849044 0 0 1 20.116492 48.526624V731.428571a68.731346 68.731346 0 0 1-68.643116 68.643116z m0-323.187317a42.262278 42.262278 0 0 0-42.174048 42.174048V731.428571a42.174048 42.174048 0 0 0 84.348096 0V519.058418a42.174048 42.174048 0 0 0-42.174048-42.174048zM864.038601 800.071687a68.731346 68.731346 0 0 1-68.643116-68.643116V519.058418a68.643116 68.643116 0 0 1 68.643116-68.643116 68.731346 68.731346 0 0 1 68.643115 68.643116V731.428571a68.643116 68.643116 0 0 1-68.643115 68.643116z m0-323.187317a42.174048 42.174048 0 0 0-42.174048 42.174048V731.428571a42.174048 42.174048 0 0 0 84.348096 0V519.058418a42.262278 42.262278 0 0 0-42.174048-42.174048zM223.487162 287.983457a13.234534 13.234534 0 0 1-2.911598 0l-73.142857-16.322592a13.234534 13.234534 0 0 1-9.440634-17.646045 400.918146 400.918146 0 0 1 743.957264-4.323281 13.234534 13.234534 0 0 1-9.352404 17.646045l-73.407548 16.499052a13.234534 13.234534 0 0 1-14.910908-7.411339 300.600379 300.600379 0 0 0-548.703774 3.7939 13.234534 13.234534 0 0 1-12.087541 7.76426zM168.25504 248.985697l47.291401 10.587627A327.069447 327.069447 0 0 1 803.512666 255.867655l47.467861-10.675858a374.449078 374.449078 0 0 0-682.725487 3.7939z" fill="#18252F" p-id="10078"></path><path d="M413.887989 980.149578H243.074272a96.435637 96.435637 0 0 1-96.347407-96.347407v-97.053248h26.469068v97.053248a69.966569 69.966569 0 0 0 69.878339 69.878339h170.813717z" fill="#18252F" p-id="10079"></path><path d="M531.58711 1024h-87.700844a57.084956 57.084956 0 1 1 0-114.169912h87.700844a57.084956 57.084956 0 1 1 0 114.169912z m-87.700844-87.700844a30.615888 30.615888 0 1 0 0 61.231776h87.700844a30.615888 30.615888 0 1 0 0-61.231776zM512.352921 719.429261a200.370843 200.370843 0 1 1 200.900224-200.370843A200.635533 200.635533 0 0 1 512.352921 719.429261z m0-374.272618a173.901775 173.901775 0 1 0 174.431156 173.901775A174.078235 174.078235 0 0 0 512.352921 345.156643z" fill="#18252F" p-id="10080"></path><path d="M441.76874 634.640014a13.234534 13.234534 0 0 1-13.234534-13.234534V407.976564a13.234534 13.234534 0 0 1 19.851801-11.46993L633.22833 502.912287a13.234534 13.234534 0 0 1 0 22.939858l-185.283474 106.670343a13.234534 13.234534 0 0 1-6.176116 2.117526z m13.234534-203.723591v167.637428l145.579873-83.818714z" fill="#18252F" p-id="10081"></path></svg>