<?xml version="1.0" standalone="no"?><!DOCTYPE svg PUBLIC "-//W3C//DTD SVG 1.1//EN" "http://www.w3.org/Graphics/SVG/1.1/DTD/svg11.dtd"><svg t="1720182635291" class="icon" viewBox="0 0 1024 1024" version="1.1" xmlns="http://www.w3.org/2000/svg" p-id="9876" xmlns:xlink="http://www.w3.org/1999/xlink" width="200" height="200"><path d="M862.8224 412.8768c-18.5344-1.1264-36.352-10.6496-47.4624-27.2896-59.5968-89.5488-155.2384-144.64-262.4-151.1424-107.1616-6.5024-208.7936 36.5568-278.784 118.2208-22.0672 25.7536-60.8768 28.7232-86.6304 6.656-25.7536-22.0672-28.7232-60.8768-6.656-86.6304 95.2832-111.104 233.6256-169.728 379.5456-160.8704 145.92 8.8576 276.1728 83.8656 357.2736 205.6704 18.7904 28.2624 11.1616 66.4064-17.1008 85.1968-11.6224 7.68-24.8832 10.9568-37.7856 10.1888z" fill="#FC483A" p-id="9877"></path><path d="M688.7936 137.8816s143.9744 73.728 181.8624 167.8336c9.1648 23.1936-23.7056 53.4528-47.6672 48.1792-20.2752-4.4544-34.6624-21.504-44.9536-32s-71.5776-59.136-110.1312-72.8576c63.5392 50.1248 125.3376 116.6848 132.864 121.4976s67.7888 23.5008 80.1792 0 31.1296-54.8864 18.0736-75.1104c-13.0048-20.224-119.3472-139.264-210.2272-157.5424z" fill="#E82121" p-id="9878"></path><path d="M188.672 676.7104l-11.6736 4.352-0.3072-108.1856c0-65.8432 18.4832-147.0464 54.9888-192.6656-14.7968 1.3824-40.2944 15.4624-53.0432 5.8368a60.7488 60.7488 0 0 1-21.3504-30.208 436.82816 436.82816 0 0 0-61.0816 223.1808v136.0384c0 21.1968 17.2032 38.4 38.4 38.4h54.1184v-76.7488z" fill="#FF7D5F" p-id="9879"></path><path d="M174.0288 382.1568s-63.6416 73.1136-43.0592 290.7648c1.9456 9.7792 9.5744 12.4928 21.5552 13.0048 12.032 0.512 10.2912 16.6912 10.2912 16.6912v31.3856h19.6096v-65.4336l-30.8736-4.9152s-3.4304-125.4912-0.512-140.1856 35.7888-123.0336 42.1376-136.2944c6.4-13.312-19.1488-5.0176-19.1488-5.0176z" fill="#EF624B" p-id="9880"></path><path d="M275.7632 178.688c-3.4304 0-6.8096-1.7408-8.7552-4.864a10.24 10.24 0 0 1 3.3792-14.08c6.1952-3.7888 12.544-7.4752 18.8928-11.008 4.9664-2.7648 11.1616-0.9216 13.9264 4.0448 2.7136 4.9664 0.9216 11.1616-4.0448 13.9264-6.0416 3.328-12.1344 6.8608-18.0224 10.496-1.7408 0.9728-3.584 1.4848-5.376 1.4848z" fill="#010101" p-id="9881"></path><path d="M837.6832 393.0624c-22.6816 0-43.52-10.3424-57.1904-28.416-62.976-83.1488-158.8224-130.8672-262.9632-130.8672s-199.9872 47.7184-262.9632 130.8672c-23.8592 31.5392-68.9152 37.7344-100.4032 13.8752s-37.7344-68.9152-13.8752-100.4032c28.2112-37.2736 61.3888-69.9904 98.56-97.2288a10.22464 10.22464 0 0 1 12.0832 16.4864c-35.584 26.0608-67.2768 57.344-94.3104 93.0304-17.0496 22.528-12.5952 54.6816 9.9328 71.7312s54.6816 12.5952 71.7312-9.9328c66.8672-88.32 168.6528-138.9568 279.296-138.9568s212.4288 50.6368 279.296 138.9568a50.85184 50.85184 0 0 0 40.8576 20.2752c11.2128 0 21.9136-3.584 30.8736-10.3936 22.528-17.0496 26.9824-49.2032 9.9328-71.7312C792.064 176.384 660.48 110.8992 517.5296 110.8992c-62.3104 0-122.4704 12.2368-178.7904 36.4032-5.1712 2.2528-11.2128-0.2048-13.4656-5.376-2.2528-5.2224 0.2048-11.2128 5.376-13.4656 58.88-25.2416 121.7536-38.0416 186.8288-38.0416 149.4528 0 286.9248 68.4032 377.2416 187.6992 23.8592 31.488 17.6128 76.544-13.8752 100.4032a70.656 70.656 0 0 1-43.1616 14.5408z" fill="#010101" p-id="9882"></path><path d="M308.0704 852.6336h-16.9984c-18.3296 0-33.1776-14.848-33.1776-33.1776v-241.3056c0-18.3296 14.848-33.1776 33.1776-33.1776h16.9984v307.6608z" fill="#F7D53A" p-id="9883"></path><path d="M282.9824 550.8608h31.7952v299.008h-31.7952z" fill="#F8B62D" p-id="9884"></path><path d="M308.0704 862.8736h-37.0688c-23.9104 0-43.4176-19.456-43.4176-43.4176v-241.3056c0-23.9104 19.456-43.4176 43.4176-43.4176h37.0688c5.632 0 10.24 4.608 10.24 10.24v307.6608c0 5.632-4.608 10.24-10.24 10.24z m-37.0688-307.6608c-12.6464 0-22.9376 10.2912-22.9376 22.9376v241.3056c0 12.6464 10.2912 22.9376 22.9376 22.9376h26.8288v-287.1808h-26.8288z" fill="#010101" p-id="9885"></path><path d="M237.824 807.1168h-18.944c-23.9104 0-43.4176-19.456-43.4176-43.4176V633.856c0-23.9104 19.456-43.4176 43.4176-43.4176h18.944c5.632 0 10.24 4.608 10.24 10.24v196.1984c0 5.6832-4.5568 10.24-10.24 10.24z m-18.944-196.1984c-12.6464 0-22.9376 10.2912-22.9376 22.9376v129.8944c0 12.6464 10.2912 22.9376 22.9376 22.9376h8.704v-175.7184h-8.704z" fill="#010101" p-id="9886"></path><path d="M185.7536 748.032H116.2752c-26.8288 0-48.64-21.8112-48.64-48.64v-136.0384c0-12.3392 0.512-24.832 1.536-37.12 0.4608-5.632 5.376-9.9328 11.0592-9.3696 5.632 0.4608 9.8304 5.4272 9.3696 11.0592-0.9728 11.7248-1.4336 23.6544-1.4336 35.4816v136.0384c0 15.5136 12.6464 28.16 28.16 28.16h59.2384v-56.32h-20.8384c-5.632 0-10.24-4.608-10.24-10.24v-97.6384c0-59.5968 14.3872-118.4256 41.7792-171.2128-11.5712-1.792-22.5792-6.4512-32.0512-13.6192-6.144-4.6592-11.4688-10.24-15.7696-16.4864A435.32288 435.32288 0 0 0 108.544 432.64a10.24 10.24 0 0 1-12.9024 6.6048 10.24 10.24 0 0 1-6.6048-12.9024 449.2288 449.2288 0 0 1 41.1136-91.392 10.25024 10.25024 0 0 1 18.5856 2.0992 50.4832 50.4832 0 0 0 17.8176 25.1392 50.87232 50.87232 0 0 0 35.6864 10.0864 10.22976 10.22976 0 0 1 9.8304 15.3088 351.8464 351.8464 0 0 0-47.1552 175.7696v87.3984h20.8384c5.632 0 10.24 4.608 10.24 10.24v76.8a10.24 10.24 0 0 1-10.24 10.24z" fill="#010101" p-id="9887"></path><path d="M82.688 508.5184c-0.512 0-1.024-0.0512-1.536-0.1024a10.19392 10.19392 0 0 1-8.6016-11.6224c0.7168-4.9152 1.536-9.7792 2.4576-14.6432 1.024-5.5296 6.3488-9.216 11.9296-8.2432a10.24 10.24 0 0 1 8.2432 11.9296c-0.8704 4.608-1.6384 9.2672-2.304 13.9776-0.8192 5.0688-5.1712 8.704-10.1888 8.704z" fill="#010101" p-id="9888"></path><path d="M410.0608 926.976c-40.3456 0-73.0624-32.7168-73.0624-73.0624v-310.272c0-40.3456 32.7168-73.0624 73.0624-73.0624s73.0624 32.7168 73.0624 73.0624v310.272c-0.0512 40.3456-32.768 73.0624-73.0624 73.0624zM682.5984 926.976c-40.3456 0-73.0624-32.7168-73.0624-73.0624v-310.272c0-40.3456 32.7168-73.0624 73.0624-73.0624s73.0624 32.7168 73.0624 73.0624v310.272c0 40.3456-32.7168 73.0624-73.0624 73.0624z" fill="#66D0FF" p-id="9889"></path><path d="M381.1328 470.6304s41.984 17.9712 41.984 90.5216v297.0624s5.888 56.8832-53.9136 63.744c26.368 3.584 75.1104-3.7376 84.5824-60.672s0-335.4112 0-335.4112-14.6432-57.4976-72.6528-55.2448zM653.4656 470.6304s41.984 17.9712 41.984 90.5216v297.0624s5.888 56.8832-53.9136 63.744c26.368 3.584 75.1104-3.7376 84.5824-60.672s0-335.4112 0-335.4112-14.6432-57.4976-72.6528-55.2448z" fill="#51B8F2" p-id="9890"></path><path d="M381.1328 937.216c-45.9264 0-83.3024-37.376-83.3024-83.3024v-310.272c0-45.9264 37.376-83.3024 83.3024-83.3024 45.9264 0 83.3024 37.376 83.3024 83.3024v310.272c-0.0512 45.9264-37.376 83.3024-83.3024 83.3024z m0-456.3456c-34.6112 0-62.8224 28.16-62.8224 62.8224v310.272c0 34.6112 28.16 62.8224 62.8224 62.8224 34.6112 0 62.8224-28.16 62.8224-62.8224v-310.272c-0.0512-34.6624-28.2112-62.8224-62.8224-62.8224z" fill="#010101" p-id="9891"></path><path d="M753.92 852.6336h29.184c18.3296 0 33.1776-14.848 33.1776-33.1776v-241.3056c0-18.3296-14.848-33.1776-33.1776-33.1776h-29.184v307.6608z" fill="#F7D53A" p-id="9892"></path><path d="M772.1472 847.4624v-296.6016c15.8208 0 28.672 12.8512 28.672 28.672v239.2576c0 15.8208-12.8512 28.672-28.672 28.672z" fill="#F8B62D" p-id="9893"></path><path d="M765.3888 862.8736h-37.0688c-5.632 0-10.24-4.608-10.24-10.24v-307.6608c0-5.632 4.608-10.24 10.24-10.24h37.0688c23.9104 0 43.4176 19.456 43.4176 43.4176v241.3056c0 23.9104-19.5072 43.4176-43.4176 43.4176z m-26.8288-20.48h26.8288c12.6464 0 22.9376-10.2912 22.9376-22.9376v-241.3056c0-12.6464-10.2912-22.9376-22.9376-22.9376h-26.8288v287.1808z" fill="#010101" p-id="9894"></path><path d="M817.5104 807.1168h-18.944c-5.632 0-10.24-4.608-10.24-10.24v-196.1984c0-5.632 4.608-10.24 10.24-10.24h18.944c23.9104 0 43.4176 19.456 43.4176 43.4176v129.8944c-0.0512 23.9104-19.5072 43.3664-43.4176 43.3664z m-8.704-20.48h8.704c12.6464 0 22.9376-10.2912 22.9376-22.9376V633.856c0-12.6464-10.2912-22.9376-22.9376-22.9376h-8.704v175.7184z" fill="#010101" p-id="9895"></path><path d="M916.5312 340.1728a61.3888 61.3888 0 0 1-21.3504 30.208 61.17376 61.17376 0 0 1-37.0176 12.4416c-1.9456 0-3.8912-0.1536-5.7856-0.3072a360.6272 360.6272 0 0 1 48.4864 180.8384v97.6384h-29.696v76.8h68.096c21.1968 0 38.4-17.2032 38.4-38.4v-136.0384c0-81.408-22.3744-157.696-61.1328-223.1808z" fill="#FF7D5F" p-id="9896"></path><path d="M881.9712 363.9296s51.968 93.3376 51.968 181.0432v142.6432s2.4064 39.2192-62.7712 32.3584c-4.864 14.2336-5.8368 23.04-5.8368 23.04l59.8016-3.9424 25.1904-17.7152 6.912-27.3408s18.1248-190.9248-26.5728-280.9856c-21.504-49.2032-34.5088-72.8064-34.5088-72.8064l-14.1824 23.7056z" fill="#EF624B" p-id="9897"></path><path d="M918.784 748.032h-68.096c-5.632 0-10.24-4.608-10.24-10.24v-76.8c0-5.632 4.608-10.24 10.24-10.24h19.456v-87.3984c0-61.5936-16.2816-122.368-47.104-175.7184-1.9456-3.328-1.8432-7.424 0.256-10.6496 2.048-3.2256 5.7344-5.0688 9.5744-4.6592 12.7488 1.1776 25.4464-2.3552 35.6864-10.0864a50.80064 50.80064 0 0 0 17.8176-25.1392c1.2288-3.84 4.608-6.6048 8.6016-7.0656 3.9936-0.4608 7.8848 1.4848 9.9328 4.9664a448.61952 448.61952 0 0 1 62.5152 228.4032v136.0384c0 26.7776-21.8624 48.5888-48.64 48.5888z m-57.9072-20.48h57.856c15.5136 0 28.16-12.6464 28.16-28.16v-136.0384c0-70.2464-17.3568-139.4688-50.2784-201.3184a70.8096 70.8096 0 0 1-15.7696 16.4864 70.6816 70.6816 0 0 1-32.0512 13.6704 372.6336 372.6336 0 0 1 41.728 171.1616v97.6384c0 5.632-4.608 10.24-10.24 10.24h-19.456v56.32zM582.2464 686.08c-5.632 0-10.24-4.608-10.24-10.24v-72.5504c0-5.632 4.608-10.24 10.24-10.24s10.24 4.608 10.24 10.24V675.84c0 5.632-4.608 10.24-10.24 10.24z" fill="#010101" p-id="9898"></path><path d="M655.2576 937.216c-45.9264 0-83.3024-37.376-83.3024-83.3024v-129.0752c0-5.632 4.608-10.24 10.24-10.24s10.24 4.608 10.24 10.24v129.0752c0 34.6112 28.16 62.8224 62.8224 62.8224 34.6112 0 62.8224-28.16 62.8224-62.8224v-310.272c0-34.6112-28.16-62.8224-62.8224-62.8224-34.6112 0-62.8224 28.16-62.8224 62.8224v24.32c0 5.632-4.608 10.24-10.24 10.24s-10.24-4.608-10.24-10.24v-24.32c0-45.9264 37.376-83.3024 83.3024-83.3024s83.3024 37.376 83.3024 83.3024v310.272c0 45.9264-37.376 83.3024-83.3024 83.3024z" fill="#010101" p-id="9899"></path><path d="M351.488 189.7984a10.2656 10.2656 0 0 1-4.4544-19.5072c95.3344-45.568 195.3792-53.0944 297.4208-22.4256 5.4272 1.6384 8.4992 7.3216 6.8608 12.7488a10.21952 10.21952 0 0 1-12.7488 6.8608c-97.024-29.184-192.1536-22.016-282.6752 21.2992-1.4336 0.7168-2.9184 1.024-4.4032 1.024zM266.6496 242.3808c-3.072 0-6.0928-1.3824-8.0896-3.9424-3.4816-4.4544-2.6624-10.9056 1.792-14.3872 16.7936-13.0048 34.3552-24.9344 52.2752-35.4304 4.864-2.8672 11.1616-1.2288 14.0288 3.6352s1.2288 11.1616-3.6352 14.0288c-17.152 10.0864-33.9968 21.504-50.1248 33.9456-1.8432 1.4336-4.0448 2.1504-6.2464 2.1504zM199.8848 305.664a10.25024 10.25024 0 0 1-8.0384-16.5888c0.512-0.6144 12.4928-15.7184 34.9696-36.5568 4.1472-3.84 10.5984-3.6352 14.4896 0.5632 3.84 4.1472 3.584 10.6496-0.5632 14.4896-21.1968 19.6608-32.7168 34.1504-32.8192 34.2528-1.9968 2.5088-5.0176 3.84-8.0384 3.84zM351.4368 587.0592c-5.5296 0-10.0864-4.4032-10.24-9.984-0.8704-31.3856 6.0928-54.5792 20.6848-68.9664 14.7456-14.4896 31.3344-14.1312 33.1776-14.08 5.632 0.256 10.0352 5.0176 9.7792 10.6496a10.24 10.24 0 0 1-10.5472 9.7792c-0.7168 0.0512-9.984 0.0512-18.3808 8.5504-9.984 10.1376-14.9504 28.6208-14.2336 53.4528 0.1536 5.632-4.3008 10.3424-9.9328 10.496-0.1024 0.1024-0.2048 0.1024-0.3072 0.1024zM623.36 587.0592c-5.5296 0-10.0864-4.4032-10.24-9.984-0.8704-31.3856 6.0928-54.5792 20.6848-68.9664 14.7456-14.4896 31.3344-14.1312 33.1776-14.08 5.632 0.256 10.0352 5.0176 9.7792 10.6496a10.24 10.24 0 0 1-10.5472 9.7792c-0.8192 0.0512-9.984 0.0512-18.3808 8.5504-9.984 10.1376-14.9504 28.6208-14.2336 53.4528 0.1536 5.632-4.3008 10.3424-9.9328 10.496-0.1024 0.1024-0.2048 0.1024-0.3072 0.1024z" fill="#FFFFFF" p-id="9900"></path></svg>