<?xml version="1.0" standalone="no"?><!DOCTYPE svg PUBLIC "-//W3C//DTD SVG 1.1//EN" "http://www.w3.org/Graphics/SVG/1.1/DTD/svg11.dtd"><svg t="1718252586520" class="icon" viewBox="0 0 1024 1024" version="1.1" xmlns="http://www.w3.org/2000/svg" p-id="10518" xmlns:xlink="http://www.w3.org/1999/xlink" width="200" height="200"><path d="M512 81.984c164.053333 17.237333 283.050667 164.202667 265.813333 328.234667a297.92 297.92 0 0 1-117.610666 207.573333c-73.088 78.293333-111.061333 138.453333-114.944 175.573333l-0.768-0.085333a192 192 0 1 1-381.888-40.149333l84.864 8.917333a106.666667 106.666667 0 0 0 212.16 22.314667l0.768 0.064c6.442667-61.312 53.546667-135.552 140.202666-227.84l2.709334-2.901334 3.221333-2.346666a212.629333 212.629333 0 0 0 86.4-150.037334c12.330667-117.162667-72.682667-222.144-189.866667-234.453333-117.162667-12.309333-222.144 72.682667-234.453333 189.866667l-84.864-8.917334C200.981333 183.744 347.946667 64.746667 512 81.984z m-203.178667 300.394667a169.898667 169.898667 0 0 1 29.866667-80l0.256-2.624 1.493333 0.149333a170.666667 170.666667 0 0 1 308.309334 112.853333l-0.469334 5.312-84.864-8.917333a85.333333 85.333333 0 0 0-138.602666-75.221333 170.666667 170.666667 0 0 1-121.557334 305.28l8.938667-84.864a85.333333 85.333333 0 1 0 17.834667-169.728l-21.205334-2.24zM821.12 87.68a447.765333 447.765333 0 0 1 102.037333 219.989333 451.584 451.584 0 0 1-7.488 179.136l-3.114666 11.904-82.261334-22.72c5.312-19.2 9.045333-38.933333 11.157334-59.072a363.157333 363.157333 0 0 0-2.56-95.722666 362.24 362.24 0 0 0-76.522667-170.730667l-6.08-7.296L821.12 87.68z" fill="#000000" p-id="10519"></path></svg>