<?xml version="1.0" standalone="no"?><!DOCTYPE svg PUBLIC "-//W3C//DTD SVG 1.1//EN" "http://www.w3.org/Graphics/SVG/1.1/DTD/svg11.dtd"><svg t="1717576868590" class="icon" viewBox="0 0 1024 1024" version="1.1" xmlns="http://www.w3.org/2000/svg" p-id="4599" xmlns:xlink="http://www.w3.org/1999/xlink" width="200" height="200"><path d="M831.172923 628.657231H429.134769c-19.534769 0-35.288615-14.178462-35.288615-31.507693 0-17.329231 15.753846-31.507692 35.288615-31.507692h402.038154c19.534769 0 35.288615 14.178462 35.288615 31.507692 0 17.329231-15.753846 31.507692-35.288615 31.507693z m0-187.707077H429.134769c-19.534769 0-35.288615-14.178462-35.288615-31.507692 0-17.329231 15.753846-31.507692 35.288615-31.507693h402.038154c19.534769 0 35.288615 14.178462 35.288615 31.507693 0 17.329231-15.753846 31.507692-35.288615 31.507692zM827.785846 259.938462H196.214154C174.946462 259.938462 157.538462 245.76 157.538462 228.430769c0-17.329231 17.408-31.507692 38.675692-31.507692h631.571692c21.267692 0 38.675692 14.178462 38.675692 31.507692 0 17.329231-17.408 31.507692-38.675692 31.507693zM330.830769 614.242462l-173.292307-118.153847 173.292307-118.153846v236.307693z m-134.616615 132.371692h631.571692c21.267692 0 38.675692 14.178462 38.675692 31.507692 0 17.329231-17.408 31.507692-38.675692 31.507692H196.214154c-21.267692 0-38.675692-14.178462-38.675692-31.507692 0-17.329231 17.408-31.507692 38.675692-31.507692z" fill="#242424" p-id="4600"></path></svg>