<?xml version="1.0" standalone="no"?><!DOCTYPE svg PUBLIC "-//W3C//DTD SVG 1.1//EN" "http://www.w3.org/Graphics/SVG/1.1/DTD/svg11.dtd"><svg t="1718616413939" class="icon" viewBox="0 0 1024 1024" version="1.1" xmlns="http://www.w3.org/2000/svg" p-id="105156" xmlns:xlink="http://www.w3.org/1999/xlink" width="200" height="200"><path d="M512.5 54C765.723 54 971 259.277 971 512.5S765.723 971 512.5 971 54 765.723 54 512.5 259.277 54 512.5 54z m0 64C294.624 118 118 294.624 118 512.5S294.624 907 512.5 907 907 730.376 907 512.5 730.376 118 512.5 118zM405.875 352.55c17.496 0 31.713 14.042 31.996 31.47l0.004 0.53v255.9c0 17.673-14.327 32-32 32-17.496 0-31.713-14.042-31.996-31.47l-0.004-0.53v-255.9c0-17.673 14.327-32 32-32z m213.25 0c17.496 0 31.713 14.042 31.996 31.47l0.004 0.53v255.9c0 17.673-14.327 32-32 32-17.496 0-31.713-14.042-31.996-31.47l-0.004-0.53v-255.9c0-17.673 14.327-32 32-32z" p-id="105157"></path></svg>