<?xml version="1.0" standalone="no"?><!DOCTYPE svg PUBLIC "-//W3C//DTD SVG 1.1//EN" "http://www.w3.org/Graphics/SVG/1.1/DTD/svg11.dtd"><svg t="1718610465553" class="icon" viewBox="0 0 1084 1024" version="1.1" xmlns="http://www.w3.org/2000/svg" p-id="4846" xmlns:xlink="http://www.w3.org/1999/xlink" width="211.71875" height="200"><path d="M783.058824 542.117647c163.237647 0 301.176471 103.484235 301.17647 240.941177s-137.938824 240.941176-301.17647 240.941176-301.176471-103.484235-301.176471-240.941176 137.938824-240.941176 301.176471-240.941177z m0 120.470588c-103.002353 0-180.705882 58.307765-180.705883 120.470589s77.703529 120.470588 180.705883 120.470588 180.705882-58.307765 180.705882-120.470588-77.703529-120.470588-180.705882-120.470589z" fill="#000000" p-id="4847"></path><path d="M1084.235294 783.058824V60.235294a60.235294 60.235294 0 0 0-120.470588 0v722.82353a60.235294 60.235294 0 0 0 120.470588 0zM60.235294 963.764706h361.411765a60.235294 60.235294 0 0 0 0-120.470588H60.235294a60.235294 60.235294 0 0 0 0 120.470588zM60.235294 722.823529h361.411765a60.235294 60.235294 0 0 0 0-120.470588H60.235294a60.235294 60.235294 0 1 0 0 120.470588zM60.235294 240.941176h722.82353a60.235294 60.235294 0 0 0 0-120.470588H60.235294a60.235294 60.235294 0 1 0 0 120.470588zM60.235294 481.882353h722.82353a60.235294 60.235294 0 0 0 0-120.470588H60.235294a60.235294 60.235294 0 1 0 0 120.470588z" fill="#000000" p-id="4848"></path></svg>