<?xml version="1.0" standalone="no"?><!DOCTYPE svg PUBLIC "-//W3C//DTD SVG 1.1//EN" "http://www.w3.org/Graphics/SVG/1.1/DTD/svg11.dtd"><svg t="1718616407051" class="icon" viewBox="0 0 1024 1024" version="1.1" xmlns="http://www.w3.org/2000/svg" p-id="104955" xmlns:xlink="http://www.w3.org/1999/xlink" width="200" height="200"><path d="M512.5 54C765.723 54 971 259.277 971 512.5S765.723 971 512.5 971 54 765.723 54 512.5 259.277 54 512.5 54z m0 64C294.624 118 118 294.624 118 512.5S294.624 907 512.5 907 907 730.376 907 512.5 730.376 118 512.5 118zM395.2 364.756c0-24.633 26.667-40.03 48-27.713l255.9 147.744c21.333 12.317 21.333 43.109 0 55.426L443.2 687.957c-21.333 12.316-48-3.08-48-27.713z m63.999 55.424v184.639L619.101 512.5l-159.902-92.32z" p-id="104956"></path></svg>