<?xml version="1.0" standalone="no"?><!DOCTYPE svg PUBLIC "-//W3C//DTD SVG 1.1//EN" "http://www.w3.org/Graphics/SVG/1.1/DTD/svg11.dtd"><svg t="1718610598653" class="icon" viewBox="0 0 1024 1024" version="1.1" xmlns="http://www.w3.org/2000/svg" p-id="3979" xmlns:xlink="http://www.w3.org/1999/xlink" width="200" height="200"><path d="M0 0h1024v1024H0z" fill="#FFFFFF" fill-opacity=".01" p-id="3980" data-spm-anchor-id="a313x.search_index.0.i3.1e343a81Dd1EeS" class="selected"></path><path d="M512 42.666667c83.712 0 164.352 21.973333 235.264 63.146666a42.666667 42.666667 0 1 1-42.837333 73.813334A381.994667 381.994667 0 0 0 512 128a384 384 0 1 0 384 384c0-68.138667-17.706667-133.546667-50.944-191.232a42.666667 42.666667 0 1 1 73.984-42.581333A467.328 467.328 0 0 1 981.333333 512c0 259.2-210.133333 469.333333-469.333333 469.333333S42.666667 771.2 42.666667 512 252.8 42.666667 512 42.666667z m154.624 259.797333a42.666667 42.666667 0 0 1 54.912 54.912l-25.173333 64.213333a2424.746667 2424.746667 0 0 1-27.306667 64.768l-9.728 21.589334-10.154667 21.461333c-16.341333 33.578667-29.994667 56.405333-43.008 69.461333a128 128 0 0 1-181.034666-181.034666c13.056-13.013333 35.882667-26.666667 69.461333-43.008l21.461333-10.154667 10.581334-4.778667 22.4-9.941333a2629.674667 2629.674667 0 0 1 80.810666-33.28z m-61.482667 116.352l-22.144 9.429333a1741.226667 1741.226667 0 0 0-10.837333 4.736l-20.394667 9.216-15.616 7.338667-13.909333 6.912-12.074667 6.272-10.026666 5.546667-7.722667 4.693333c-3.285333 2.133333-5.632 3.882667-6.912 5.205333a42.666667 42.666667 0 0 0 60.330667 60.330667c1.706667-1.706667 4.266667-5.333333 7.424-10.496l5.12-8.874667 5.973333-11.093333 6.613333-13.013333 7.125334-14.805334 8.277333-17.92 9.386667-21.290666 9.386666-22.186667z" fill="#222222" p-id="3981"></path></svg>