<?xml version="1.0" standalone="no"?><!DOCTYPE svg PUBLIC "-//W3C//DTD SVG 1.1//EN" "http://www.w3.org/Graphics/SVG/1.1/DTD/svg11.dtd"><svg t="1718616431138" class="icon" viewBox="0 0 1024 1024" version="1.1" xmlns="http://www.w3.org/2000/svg" p-id="105390" xmlns:xlink="http://www.w3.org/1999/xlink" width="200" height="200"><path d="M512.5 54c81.806 0 160.554 21.482 229.81 61.67 15.286 8.87 20.487 28.452 11.617 43.738-8.87 15.286-28.453 20.487-43.739 11.617C650.626 136.462 582.948 118 512.5 118 294.624 118 118 294.624 118 512.5S294.624 907 512.5 907 907 730.376 907 512.5c0-69.97-18.21-137.208-52.328-196.483-8.817-15.317-3.547-34.88 11.77-43.697 15.317-8.816 34.881-3.546 43.698 11.77C949.81 353.015 971 431.25 971 512.5 971 765.723 765.723 971 512.5 971S54 765.723 54 512.5 259.277 54 512.5 54z m158.305 259.006c25.718-9.633 50.824 15.474 41.191 41.191l-2.579 6.808-3.068 8.005-1.874 4.851-2.454 6.314-2.049 5.24-1.585 4.034-1.835 4.65c-10.398 26.289-21.177 52.522-31.851 77.134l-1.762 4.05-1.75 3.998-0.872 1.98-1.735 3.923-0.863 1.941-1.718 3.843-0.854 1.901-1.7 3.762-1.689 3.707c-0.56 1.226-1.12 2.443-1.676 3.65l-0.61 1.323-1.816 3.913-1.199 2.564-1.189 2.527-1.179 2.492-1.17 2.455-1.737 3.616-1.147 2.365-1.137 2.33-1.129 2.293-1.12 2.257-1.11 2.221-1.103 2.186-1.094 2.149-1.085 2.113-1.078 2.078-1.069 2.042-1.06 2.005-1.054 1.97-0.523 0.972-1.042 1.916c-0.346 0.632-0.69 1.26-1.033 1.88l-1.027 1.844c-0.34 0.609-0.68 1.212-1.018 1.809l-1.012 1.772c-0.168 0.293-0.335 0.584-0.503 0.873l-1 1.72a304.167 304.167 0 0 1-1.98 3.33l-0.98 1.611-0.974 1.576-0.484 0.774-0.963 1.523c-0.16 0.25-0.32 0.5-0.48 0.747l-0.953 1.469c-5.229 7.979-10.174 14.337-14.92 19.083-45.808 45.808-120.08 45.808-165.888 0-45.808-45.809-45.808-120.08 0-165.888 3.883-3.883 8.845-7.9 14.89-12.095l1.362-0.935c1.15-0.782 2.336-1.57 3.56-2.365l1.486-0.957 0.757-0.481 1.54-0.967 0.783-0.485 1.594-0.977a295.075 295.075 0 0 1 3.294-1.973l1.7-0.997 0.865-0.502 1.754-1.007 1.79-1.015 0.91-0.51 1.844-1.027 1.88-1.034 0.953-0.52 1.934-1.044 1.97-1.053 2.005-1.061 2.042-1.07 1.034-0.537 2.095-1.081 2.132-1.09 2.167-1.098 2.203-1.107 2.24-1.115 2.275-1.124 2.31-1.133 2.348-1.142 2.383-1.151 2.42-1.16 2.455-1.17 2.49-1.18 3.805-1.787 2.582-1.203 2.617-1.213 3.141-1.447 3.68-1.682 1.86-0.846 3.763-1.7 1.902-0.855 3.843-1.718c1.29-0.575 2.59-1.151 3.897-1.73l3.948-1.74 1.994-0.875 4.025-1.756 2.031-0.883c19.485-8.45 39.986-16.966 60.725-25.307l6.557-2.627c4.375-1.748 8.757-3.487 13.139-5.214l2.718-1.07 5.32-2.086 5.157-2.012 6.205-2.405 5.918-2.278 6.333-2.418z m-45.448 86.638l-1.523 0.622-6.084 2.495a2242.543 2242.543 0 0 0-38.518 16.256l-3.9 1.696-1.93 0.844-3.821 1.679-3.769 1.667-1.864 0.829-3.687 1.648c-1.22 0.547-2.431 1.092-3.632 1.635l-3.576 1.622-1.766 0.806-3.488 1.601-3.274 1.516-2.15 1.002-3.171 1.49-3.11 1.474-3.045 1.457-2.98 1.439-2.914 1.42-2.845 1.4-2.777 1.382-2.706 1.36-2.635 1.338-2.562 1.316-2.487 1.292-1.617 0.849-1.582 0.837-2.31 1.236-2.232 1.21-2.151 1.183-2.071 1.156-1.335 0.755-1.298 0.742-1.261 0.73-1.223 0.716-1.185 0.703-1.147 0.69-1.108 0.675-1.07 0.661-1.029 0.647-0.99 0.633-0.948 0.618-0.91 0.603-0.438 0.295-0.847 0.58-0.805 0.565-0.764 0.549-0.721 0.532c-0.583 0.438-1.122 0.858-1.615 1.26l-0.57 0.476c-0.548 0.466-1.03 0.907-1.445 1.321-20.815 20.815-20.815 54.564 0 75.379 20.815 20.815 54.564 20.815 75.378 0 0.345-0.345 0.71-0.737 1.09-1.175l0.467-0.549 0.484-0.592c0.163-0.204 0.33-0.416 0.5-0.635l0.516-0.678 0.264-0.356 0.541-0.742 0.277-0.387 0.564-0.806 0.58-0.847 0.595-0.888 0.61-0.929 0.626-0.97 0.64-1.01 0.654-1.048 0.669-1.09 0.682-1.127 0.697-1.166 1.07-1.82 0.729-1.262 0.742-1.298 0.755-1.335 1.156-2.071 0.786-1.426 1.201-2.205 1.227-2.284 0.832-1.566 1.27-2.412 0.858-1.65 1.309-2.538 0.884-1.732 1.346-2.659 0.91-1.812 0.917-1.844 1.395-2.823 0.94-1.92 1.427-2.936 1.445-3.002 0.973-2.038 0.981-2.066 1.485-3.151 0.999-2.136 1.51-3.254 1.306-2.835 1.608-3.517 1.622-3.575 1.635-3.63 1.648-3.688 1.66-3.74 0.835-1.891 1.679-3.822 1.69-3.873 0.85-1.955c6.23-14.37 12.519-29.354 18.75-44.602l0.622-1.524z" p-id="105391"></path></svg>