<?xml version="1.0" standalone="no"?><!DOCTYPE svg PUBLIC "-//W3C//DTD SVG 1.1//EN" "http://www.w3.org/Graphics/SVG/1.1/DTD/svg11.dtd"><svg t="1718616383194" class="icon" viewBox="0 0 1024 1024" version="1.1" xmlns="http://www.w3.org/2000/svg" p-id="104268" xmlns:xlink="http://www.w3.org/1999/xlink" width="200" height="200"><path d="M512.5 96c17.673 0 32 14.327 32 32v768c0 17.673-14.327 32-32 32-41.087 0-81.145-12.36-119.762-34.9-31.633-18.463-61.483-43.254-89.52-72.783-21.503-22.646-40.743-46.795-57.53-70.953-0.819-1.179-1.624-2.347-2.416-3.503l-1.565-2.296c-1.03-1.52-2.037-3.02-3.018-4.496l-1.453-2.197-1.415-2.162c-0.465-0.715-0.925-1.424-1.378-2.126l-0.01-0.017H128.65c-40.819 0-73.98-32.766-74.64-73.432l-0.01-1.234V362.897c0-41.235 33.419-74.667 74.65-74.667h105.94l0.905-1.375a557.364 557.364 0 0 1 5.714-8.488l1.728-2.504a606.93 606.93 0 0 1 4.504-6.401l0.874-1.222c17.097-23.843 36.513-47.445 58.072-69.419 27.838-28.373 57.4-52.111 88.653-69.733C432.975 107.698 472.26 96 512.5 96z m240.901 25.676C887.581 204.714 971 351.198 971 512c0 163.392-86.138 311.895-223.814 394.103-15.174 9.06-34.82 4.105-43.88-11.07-9.06-15.173-4.105-34.819 11.069-43.88C832.899 780.382 907 652.632 907 512c0-137.02-70.33-261.89-183.825-333.742l-3.453-2.16c-15.028-9.3-19.671-29.023-10.371-44.051 9.3-15.028 29.022-19.671 44.05-10.371zM480.5 163.533l-0.427 0.093c-43.27 9.576-86.525 37.743-128.002 80.017-19.083 19.45-36.45 40.56-51.744 61.89l-1.55 2.174-1.517 2.147-1.481 2.12c-0.489 0.702-0.97 1.399-1.447 2.091l-1.413 2.063-0.693 1.02-1.36 2.018-1.323 1.985-0.65 0.981-1.27 1.938-1.235 1.903-0.604 0.939-1.204 1.888-0.759 1.202-1.07 1.714-0.988 1.605-0.93 1.532-1.121 1.893a32 32 0 0 1-27.409 15.484H128.65c-5.88 0-10.65 4.773-10.65 10.667v295.004c0 5.894 4.77 10.666 10.65 10.666h123.653a32 32 0 0 1 27.83 16.205l0.115 0.2 1.351 2.29 1.077 1.784 0.892 1.457 0.964 1.558 1.027 1.643 1.06 1.677 0.542 0.85 1.107 1.727 1.138 1.757 0.581 0.89 1.186 1.805 1.217 1.833 1.247 1.863 1.279 1.891c0.215 0.318 0.432 0.636 0.65 0.956l1.325 1.932 1.355 1.959c15.041 21.646 32.294 43.301 51.383 63.406 42.026 44.262 85.983 73.865 129.937 83.935l0.934 0.209V163.533z m223.919 132.602a286.03 286.03 0 0 1 40.44 44.65C780.715 389.9 800.4 449.48 800.4 512c0 61.98-19.346 121.08-54.638 169.97a286.114 286.114 0 0 1-41.343 45.894c-13.18 11.774-33.41 10.635-45.183-2.545-11.774-13.18-10.635-33.41 2.545-45.183a222.108 222.108 0 0 0 32.09-35.627C721.338 606.458 736.4 560.448 736.4 512c0-48.868-15.324-95.252-43.231-133.476a222.03 222.03 0 0 0-31.388-34.66c-13.18-11.773-14.32-32.003-2.546-45.183 11.774-13.18 32.004-14.32 45.184-2.546z" p-id="104269" fill="#515151"></path></svg>