<?xml version="1.0" standalone="no"?><!DOCTYPE svg PUBLIC "-//W3C//DTD SVG 1.1//EN" "http://www.w3.org/Graphics/SVG/1.1/DTD/svg11.dtd"><svg t="1718610283879" class="icon" viewBox="0 0 1024 1024" version="1.1" xmlns="http://www.w3.org/2000/svg" p-id="4023" xmlns:xlink="http://www.w3.org/1999/xlink" width="200" height="200"><path d="M213.333333 597.333333a128 128 0 1 1 0 256 128 128 0 0 1 0-256z m0 85.333334a42.666667 42.666667 0 1 0 0 85.333333 42.666667 42.666667 0 0 0 0-85.333333z" fill="#000000" p-id="4024"></path><path d="M170.666667 42.666667v597.333333a42.666667 42.666667 0 0 0 85.333333 0V42.666667a42.666667 42.666667 0 1 0-85.333333 0zM256 981.333333v-170.666666a42.666667 42.666667 0 0 0-85.333333 0v170.666666a42.666667 42.666667 0 0 0 85.333333 0zM512 170.666667a128 128 0 1 1 0 256 128 128 0 0 1 0-256z m0 85.333333a42.666667 42.666667 0 1 0 0 85.333333 42.666667 42.666667 0 0 0 0-85.333333z" fill="#000000" p-id="4025"></path><path d="M554.666667 981.333333V384a42.666667 42.666667 0 0 0-85.333334 0v597.333333a42.666667 42.666667 0 0 0 85.333334 0zM469.333333 42.666667v170.666666a42.666667 42.666667 0 1 0 85.333334 0V42.666667a42.666667 42.666667 0 0 0-85.333334 0zM810.666667 426.666667a128 128 0 1 1 0 256 128 128 0 0 1 0-256z m0 85.333333a42.666667 42.666667 0 1 0 0 85.333333 42.666667 42.666667 0 0 0 0-85.333333z" fill="#000000" p-id="4026"></path><path d="M853.333333 981.333333v-341.333333a42.666667 42.666667 0 0 0-85.333333 0v341.333333a42.666667 42.666667 0 0 0 85.333333 0zM768 42.666667v426.666666a42.666667 42.666667 0 0 0 85.333333 0V42.666667a42.666667 42.666667 0 0 0-85.333333 0zM170.666667 42.666667v597.333333a42.666667 42.666667 0 0 0 85.333333 0V42.666667a42.666667 42.666667 0 1 0-85.333333 0zM256 981.333333v-170.666666a42.666667 42.666667 0 0 0-85.333333 0v170.666666a42.666667 42.666667 0 0 0 85.333333 0zM554.666667 981.333333V384a42.666667 42.666667 0 0 0-85.333334 0v597.333333a42.666667 42.666667 0 0 0 85.333334 0zM469.333333 42.666667v170.666666a42.666667 42.666667 0 1 0 85.333334 0V42.666667a42.666667 42.666667 0 0 0-85.333334 0z" fill="#000000" p-id="4027"></path><path d="M853.333333 981.333333v-341.333333a42.666667 42.666667 0 0 0-85.333333 0v341.333333a42.666667 42.666667 0 0 0 85.333333 0zM768 42.666667v426.666666a42.666667 42.666667 0 0 0 85.333333 0V42.666667a42.666667 42.666667 0 0 0-85.333333 0z" fill="#000000" p-id="4028"></path></svg>