<?xml version="1.0" standalone="no"?><!DOCTYPE svg PUBLIC "-//W3C//DTD SVG 1.1//EN" "http://www.w3.org/Graphics/SVG/1.1/DTD/svg11.dtd"><svg t="1718617484288" class="icon" viewBox="0 0 1024 1024" version="1.1" xmlns="http://www.w3.org/2000/svg" p-id="51619" xmlns:xlink="http://www.w3.org/1999/xlink" width="200" height="200"><path d="M320.581 54c17.496 0 31.713 14.042 31.996 31.47l0.004 0.53v853c0 17.673-14.327 32-32 32-17.496 0-31.713-14.042-31.996-31.47l-0.004-0.53V86c0-17.673 14.327-32 32-32zM704.42 203.275c17.496 0 31.713 14.042 31.996 31.47l0.004 0.53v554.45c0 17.673-14.327 32-32 32-17.496 0-31.713-14.042-31.996-31.47l-0.004-0.53v-554.45c0-17.673 14.327-32 32-32zM512.5 331.225c17.496 0 31.713 14.042 31.996 31.47l0.004 0.53v298.55c0 17.673-14.327 32-32 32-17.496 0-31.713-14.042-31.996-31.47l-0.004-0.53v-298.55c0-17.673 14.327-32 32-32z m-383.838 0c17.497 0 31.713 14.042 31.996 31.47l0.004 0.53v298.55c0 17.673-14.327 32-32 32-17.496 0-31.713-14.042-31.996-31.47l-0.004-0.53v-298.55c0-17.673 14.327-32 32-32z m767.676 21.325c17.496 0 31.713 14.042 31.996 31.47l0.004 0.53v255.9c0 17.673-14.327 32-32 32-17.497 0-31.713-14.042-31.996-31.47l-0.004-0.53v-255.9c0-17.673 14.327-32 32-32z" p-id="51620"></path></svg>