<?xml version="1.0" standalone="no"?><!DOCTYPE svg PUBLIC "-//W3C//DTD SVG 1.1//EN" "http://www.w3.org/Graphics/SVG/1.1/DTD/svg11.dtd"><svg t="1715102132848" class="icon" viewBox="0 0 1024 1024" version="1.1" xmlns="http://www.w3.org/2000/svg" p-id="1833" xmlns:xlink="http://www.w3.org/1999/xlink" width="200" height="200"><path d="M99.555556 113.777778m170.666666 0l483.555556 0q170.666667 0 170.666666 170.666666l0 483.555556q0 170.666667-170.666666 170.666667l-483.555556 0q-170.666667 0-170.666666-170.666667l0-483.555556q0-170.666667 170.666666-170.666666Z" fill="#F1EAE1" p-id="1834"></path><path d="M753.777778 113.777778c94.250667 0 170.666667 76.416 170.666666 170.666666v483.555556c0 94.250667-76.416 170.666667-170.666666 170.666667H270.222222c-94.250667 0-170.666667-76.416-170.666666-170.666667V284.444444c0-94.250667 76.416-170.666667 170.666666-170.666666h483.555556z m0 14.222222H270.222222C183.822222 128 113.777778 198.044444 113.777778 284.444444v483.555556c0 86.4 70.044444 156.444444 156.444444 156.444444h483.555556c86.4 0 156.444444-70.044444 156.444444-156.444444V284.444444c0-86.4-70.044444-156.444444-156.444444-156.444444z" fill="#FF6400" p-id="1835"></path><path d="M99.555556 113.777778m170.666666 0l483.555556 0q170.666667 0 170.666666 170.666666l0 398.222223q0 170.666667-170.666666 170.666666l-483.555556 0q-170.666667 0-170.666666-170.666666l0-398.222223q0-170.666667 170.666666-170.666666Z" fill="#FF6400" p-id="1836"></path><path d="M753.777778 113.777778c94.250667 0 170.666667 76.416 170.666666 170.666666v398.222223c0 94.250667-76.416 170.666667-170.666666 170.666666H270.222222c-94.250667 0-170.666667-76.416-170.666666-170.666666V284.444444c0-94.250667 76.416-170.666667 170.666666-170.666666h483.555556z m0 14.222222H270.222222C183.822222 128 113.777778 198.044444 113.777778 284.444444v398.222223c0 86.4 70.044444 156.444444 156.444444 156.444444h483.555556c86.4 0 156.444444-70.044444 156.444444-156.444444V284.444444c0-86.4-70.044444-156.444444-156.444444-156.444444z" fill="#933129" p-id="1837"></path><path d="M341.333333 867.555556h142.222223v56.888888l-71.111112-14.222222-71.111111 14.222222z" fill="#FF6400" p-id="1838"></path><path d="M256 170.666667m14.222222 0l0 0q14.222222 0 14.222222 14.222222l0 597.333333q0 14.222222-14.222222 14.222222l0 0q-14.222222 0-14.222222-14.222222l0-597.333333q0-14.222222 14.222222-14.222222Z" fill="#933129" p-id="1839"></path><path d="M668.444444 113.777778h99.555556v725.333333h-99.555556z" fill="#0A3E47" p-id="1840"></path><path d="M668.444444 839.111111h99.555556v85.333333h-99.555556z" fill="#0F2830" p-id="1841"></path><path d="M711.111111 113.777778h14.222222v810.666666h-14.222222z" fill="#F1EAE1" p-id="1842"></path><path d="M433.777778 712.448v68.437333h-81.777778v-67.100444h19.114667V753.777778h11.548444v-33.777778h19.114667V753.777778h12.885333v-41.329778zM411.107556 698.666667H398.222222v-57.329778h12.885334zM399.559111 589.340444v8.433778h15.104v-11.548444c0.298667-8.007111-2.218667-11.861333-7.552-11.562667-5.632-0.583111-8.149333 4.295111-7.552 14.677333z m-28.444444-0.896v9.329778h13.326222v-11.107555c0-6.229333-2.360889-9.329778-7.111111-9.329778-4.736-0.298667-6.812444 3.413333-6.215111 11.107555z m62.663111-3.555555v40.007111h-81.777778v-39.111111c-0.284444-22.528 6.513778-33.635556 20.451556-33.336889 7.395556 0.284444 13.326222 3.84 17.777777 10.666667 2.659556-8.888889 8.888889-13.482667 18.659556-13.781334 16.597333-0.284444 24.888889 11.562667 24.888889 35.555556zM369.777778 497.336889c0.284444 10.069333 7.850667 15.402667 22.670222 16 15.402667-0.597333 23.253333-5.930667 23.552-16-0.284444-10.666667-8.149333-16.156444-23.552-16.455111C377.315556 481.493333 369.777778 486.968889 369.777778 497.351111z m-19.996445 0c1.180444-26.965333 15.402667-41.344 42.666667-43.121778 27.249778 1.194667 41.472 15.559111 42.666667 43.121778-0.896 27.548444-15.260444 41.770667-43.121778 42.666667-26.666667-1.479111-40.732444-15.701333-42.211556-42.666667zM369.777778 402.673778c0.284444 10.069333 7.850667 15.402667 22.670222 16 15.402667-0.597333 23.253333-5.930667 23.552-16-0.284444-10.666667-8.149333-16.156444-23.552-16.455111-15.118222 0.597333-22.670222 6.072889-22.670222 16.455111z m-19.996445 0c1.180444-26.965333 15.402667-41.344 42.666667-43.121778 27.249778 1.194667 41.472 15.559111 42.666667 43.121778-0.896 27.548444-15.260444 41.770667-43.121778 42.666666-26.666667-1.493333-40.732444-15.715556-42.211556-42.666666zM433.777778 346.666667h-81.777778v-27.107556h26.225778l-26.225778-23.566222v-31.544889l30.663111 30.222222 51.114667-33.336889v32.440889l-32.440889 19.555556 6.656 6.229333H433.777778zM375.552 184.448v25.329778c-2.659556 0.284444-4.437333 1.635556-5.333333 3.996444-1.180444 1.479111-1.777778 3.697778-1.777778 6.670222 0 5.930667 1.635556 8.888889 4.892444 8.888889 2.958222 0 5.774222-5.333333 8.448-16 5.034667-20.736 13.624889-31.118222 25.770667-31.118222 18.076444 0.597333 27.264 13.340444 27.562667 38.229333-0.896 21.617778-9.784889 33.777778-26.666667 36.451556V231.111111a12.145778 12.145778 0 0 0 6.670222-4.437333c1.180444-2.076444 1.777778-4.593778 1.777778-7.566222 0-7.694222-1.934222-11.548444-5.788444-11.548445-3.256889 0-6.072889 5.176889-8.433778 15.559111-5.048889 21.034667-13.937778 31.544889-26.666667 31.544889-16.896-0.583111-25.642667-12.288-26.225778-35.100444 0.284444-20.750222 8.888889-32.455111 25.770667-35.128889z" fill="#0A3E47" p-id="1843"></path></svg>